<svg xmlns="http://www.w3.org/2000/svg" width="132" fill="none" viewBox="0 0 132 18" class="Icon  " alt="Audiomack - Music Platform Empowering Artists"><path fill="#fff" fill-rule="evenodd" d="M48.417 15.589h3.336V5.059h-3.336v6.026q.002 1.05-.538 1.66-.54.612-1.438.612-1.821-.001-1.821-2.23V5.059h-3.336v6.357c0 2.952 1.254 4.43 3.77 4.43q2.073 0 3.312-1.86h.051zm-11.49 0h3.165V9.295q-.001-4.492-4.636-4.493-.999-.002-2.209.267c-.809.179-1.445.382-1.911.618v2.446q1.746-1.12 3.683-1.12 1.93 0 1.93 1.727l-2.946.38q-3.736.473-3.736 3.537c0 .966.3 1.742.903 2.32q.903.869 2.486.868 2.136 0 3.227-1.77h.043zm.02-4.988v.709q-.001.97-.592 1.6c-.398.422-.907.632-1.536.632q-.677-.002-1.077-.354a1.17 1.17 0 0 1-.394-.91q0-1.226 1.63-1.431zm23.597 4.988h3.347V0h-3.347v6.262h-.04q-.827-1.462-2.922-1.46-2.212 0-3.578 1.572-1.365 1.575-1.366 4.184-.001 2.503 1.24 3.893 1.236 1.395 3.27 1.394 2.212 0 3.357-1.706h.04zm.065-5.915v.793q0 1.306-.64 2.1-.64.79-1.658.79-1.067 0-1.672-.752-.603-.746-.604-2.138.001-1.479.625-2.33.625-.847 1.738-.846.982-.001 1.597.677.613.68.614 1.706m5.046-6.77q.54.488 1.387.487c.57 0 1.037-.158 1.39-.47q.538-.474.536-1.215.001-.73-.535-1.193Q67.9.049 67.042.049q-.846 0-1.387.464c-.362.309-.539.705-.539 1.193 0 .474.177.87.539 1.197m3.335 10.13c-.22-.228-.33-.569-.33-1.015v-6.96h-3.323v7.68q0 .72.213 1.298.211.575.595.98.392.41.933.624.547.215 1.215.214c.483 0 .954-.03 1.401-.098q.672-.095 1.276-.249v-2.285l-.028.005q-.263.052-.524.097a3 3 0 0 1-.55.053q-.548-.001-.878-.344m3.007 1.337q1.55 1.474 4.26 1.474 2.753 0 4.336-1.52 1.583-1.523 1.582-4.145-.001-2.429-1.535-3.904-1.534-1.474-4.235-1.474-2.741 0-4.35 1.474-1.61 1.476-1.609 4.09c0 1.684.517 3.022 1.55 4.005M74.5 8.08q.655-.79 1.842-.79 2.423-.001 2.424 2.952-.001 3.112-2.402 3.113-2.521 0-2.522-3.032 0-1.45.658-2.243m22.436 7.508h3.335v-6.55q0-4.238-3.534-4.237-2.402 0-3.641 1.962-.848-1.963-3.144-1.962-1.112 0-2.05.53c-.625.35-1.109.81-1.456 1.372h-.043V5.058h-3.343v10.53h3.343v-5.85q.001-1.133.517-1.791.511-.657 1.37-.656c1.133 0 1.704.744 1.704 2.229v6.069h3.343V9.695q0-1.027.52-1.717.52-.689 1.344-.687 1.736 0 1.735 2.292zm13.717 0h-3.166v-1.513h-.043q-1.09 1.769-3.226 1.769-1.582 0-2.486-.867-.905-.871-.904-2.32.001-3.065 3.736-3.539l2.945-.379q0-1.727-1.929-1.727-1.936 0-3.682 1.12V5.687q.697-.353 1.911-.618a10.3 10.3 0 0 1 2.208-.267q4.636.001 4.636 4.493zm-3.144-4.28v-.708l-1.969.245q-1.63.207-1.63 1.433 0 .555.395.909.4.353 1.076.354.942 0 1.536-.632.59-.63.592-1.6m12.72 3.9q-1.133.637-3.27.636-2.498.002-4.043-1.47-1.546-1.469-1.547-3.796c0-1.79.553-3.197 1.655-4.23q1.659-1.547 4.434-1.547 1.914.001 2.771.491v2.759a3.87 3.87 0 0 0-2.337-.761c-.962 0-1.72.27-2.284.817q-.842.816-.842 2.257c0 .93.271 1.664.806 2.194.534.534 1.275.797 2.211.797q1.25.001 2.446-.761zm7.755.38H132l-4.163-5.585 3.884-4.946h-3.967l-3.23 4.866h-.044V0h-3.342v15.589h3.342v-5.224h.044z" clip-rule="evenodd"></path><path fill="url(#logo_svg__a)" fill-rule="evenodd" d="M.344 8.781s.562-.092.794.15.08.743-.228.752c-.308.008-.592.065-.794-.15a.46.46 0 0 1 .228-.752m6.103 3.42c-.054.006-.111-.019-.17-.06-.403-.563-.549-2.485-.734-2.6-.192-.119-.887 1.065-2.269.938-.578-.053-1.166-.428-1.512-.687.032-.437.037-1.457.898-1.126.523.202 1.419.755 2.205-.239.87-1.098 1.35-.78 1.637-.54.288.238.096 1.48.525 1.133s2.161-2.503 2.161-2.503 1.34-1.353 1.546.07c.206 1.422 1.08 2.999 1.312 2.954s2.929-5.532 3.315-5.886 1.687-.307 1.625.601-.194 6.552-.194 6.552-.153 1.59.096.74c.103-.352.214-.67.352-1.04.666-2.134 1.8-5.777 2.365-7.655.13-.449.241-.834.328-1.13V1.72c.034-.137.068-.246.102-.343.047-.16.079-.264.088-.292.026-.07.096-.124.196-.163.1-.063.207-.066.329-.07.313-.028.716.013 1.079.117.106.004.22.038.33.116l.015.01.008.005c.022.016.059.047.102.098q0 .003.004.005a1 1 0 0 1 .053.077c.203.297.327.845.202 1.817-.31 2.426-.551 7.416-.551 7.416s-.048.239.451-.812c.018-.037.04-.068.06-.102a.4.4 0 0 0 .095-.088c.309-.369 1.139-.585 1.714-.58.243.029.446.09.567.167.227.346.093 1.622.093 1.622-.479.044-1.391.302-1.715.35-.323.048-.814 2.15-1.497 1.935s-2.206-1.17-2.206-1.302c0-.115.12-1.511.151-1.871l.006-.071.002-.015c.021-.283.002-.407-.13-.124-.112.244-.602 1.803-1.149 3.501-.058.149-1.09 3.278-1.227 3.66-.161.442-.297.781-.391.956-.143.194-.336.316-.605.234-.671-.203-1.521-1.13-1.529-1.36-.016-1.3.063-8.282-.251-7.7-.323.596-2.834 4.737-2.834 4.737-.042.007-.073.006-.11.009-.178-.02-.453-.077-.53-.248q-.007-.014-.013-.03l-.014-.041c-.034-.114-.048-.238-.078-.34-.112-.378-.292-.922-.48-1.475-.29-.943-.587-1.908-.636-2.014-.096-.209-.236-.12-.361 0-.56.475-1.75 2.575-2.826 2.69" clip-rule="evenodd"></path><defs><linearGradient id="logo_svg__a" x1="-11.27" x2="5.768" y1="9.037" y2="31.677" gradientUnits="userSpaceOnUse"><stop stop-color="#FFBE00"></stop><stop offset="1" stop-color="#E85E0A"></stop></linearGradient></defs></svg>