<svg xmlns="http://www.w3.org/2000/svg" width="180" height="54" fill="none" viewBox="0 0 180 54" class="Icon  Footer-download-link-icon"><path fill="#fff" d="M165.415 54H12.325c-1.018 0-2.15-.1-3.167-.2-1.13-.2-2.148-.5-3.166-.9s-1.922-1-2.713-1.7-1.47-1.5-1.922-2.4C.79 47.9.452 47 .339 46 .113 45.1 0 44.2 0 43.2V10.7Q0 9.35.34 8c.225-1 .565-1.9 1.017-2.8s1.13-1.7 1.922-2.4c.791-.7 1.696-1.3 2.713-1.7S8.028.4 9.158.2c1.018-.1 2.036-.2 3.166-.2h155.352c1.017 0 2.148.1 3.166.2 1.13.2 2.148.5 3.166.9 2.035.9 3.618 2.3 4.635 4.1.452.9.905 1.8 1.018 2.8.226.9.226 1.8.339 2.8v32.4c0 .9-.113 1.8-.339 2.8s-.566 1.9-1.018 2.8c-.565.9-1.13 1.7-1.922 2.4-.791.7-1.696 1.3-2.713 1.7s-2.036.7-3.166.9c-1.018.2-2.035.2-3.166.2zM15.264 1h-2.94c-1.018 0-2.035.1-3.053.2-.904.2-1.922.5-2.826.9-.792.4-1.696.9-2.375 1.5a8.1 8.1 0 0 0-1.696 2.1c-.452.8-.791 1.6-.904 2.5-.226.8-.34 1.7-.34 2.6v32.4c0 .9.114 1.7.227 2.6s.452 1.7.904 2.5a8.1 8.1 0 0 0 1.696 2.1c.792.6 1.696 1.1 2.488 1.5.904.4 1.809.7 2.826.8q1.527.3 3.053.3h155.239c1.017 0 2.035-.1 2.94-.2 1.017-.1 1.922-.4 2.826-.8q1.357-.6 2.375-1.5 1.017-.9 1.695-2.1c.453-.8.792-1.6.905-2.5s.226-1.7.226-2.6V10.8c0-.9-.113-1.7-.226-2.6s-.452-1.7-.905-2.5c-.904-1.6-2.374-2.8-4.183-3.6-.904-.4-1.809-.7-2.827-.8-.791-.2-1.809-.3-2.826-.3z"></path><path fill="url(#native_svg__a)" fill-rule="evenodd" d="M10.469 27.104s.767-.13 1.084.209c.316.339.109 1.04-.311 1.052-.42.011-.809.09-1.084-.21-.276-.3-.202-.903.311-1.051m8.306 4.784c-.074.008-.152-.027-.232-.085-.55-.787-.75-3.477-1.002-3.637-.262-.166-1.21 1.49-3.097 1.312-.789-.074-1.592-.599-2.065-.962.044-.61.052-2.038 1.227-1.574.714.282 1.936 1.056 3.01-.334 1.187-1.537 1.841-1.09 2.234-.757.392.335.13 2.073.716 1.587s2.95-3.503 2.95-3.503 1.83-1.893 2.11.097 1.474 4.197 1.79 4.134 3.999-7.739 4.526-8.234 2.302-.43 2.218.84-.265 9.167-.265 9.167-.208 2.225.13 1.035c.142-.492.293-.937.481-1.456.91-2.984 2.457-8.081 3.228-10.708.177-.628.33-1.168.449-1.582v-.002c.046-.192.092-.344.138-.48.064-.223.108-.37.121-.409.035-.098.131-.173.267-.228.136-.088.283-.093.448-.097.429-.04.979.018 1.474.163a.8.8 0 0 1 .45.162l.02.014.011.008c.031.022.081.065.14.137l.005.007q.036.045.073.107c.276.416.446 1.183.276 2.543-.425 3.393-.753 10.375-.753 10.375s-.066.334.616-1.137c.024-.051.055-.095.082-.142a.6.6 0 0 0 .13-.124c.421-.515 1.554-.818 2.34-.812.33.041.607.127.773.234.31.484.127 2.27.127 2.27-.653.062-1.899.422-2.34.49-.442.066-1.113 3.007-2.045 2.706-.932-.3-3.01-1.637-3.01-1.821 0-.16.164-2.114.206-2.618l.008-.1.002-.02c.03-.396.003-.57-.175-.173-.154.34-.824 2.522-1.57 4.898-.079.208-1.49 4.586-1.674 5.12-.221.619-.407 1.093-.535 1.338-.195.271-.458.441-.825.327-.916-.284-2.076-1.582-2.087-1.904-.022-1.817.086-11.586-.344-10.772-.44.835-3.867 6.627-3.867 6.627-.057.01-.1.009-.15.013-.243-.027-.619-.108-.723-.346q-.01-.02-.018-.041l-.02-.059c-.046-.16-.065-.332-.106-.474a60 60 0 0 0-.656-2.065c-.394-1.32-.801-2.669-.868-2.818-.13-.291-.321-.169-.492 0-.765.665-2.39 3.602-3.857 3.763" clip-rule="evenodd"></path><path fill="#fff" d="M57.733 18.362q0 1.207-.449 2.017a2.88 2.88 0 0 1-1.303 1.216Q55.126 22 53.92 22h-1.983v-7.139h2.198q1.109 0 1.914.4.805.396 1.245 1.178.44.775.44 1.923m-1.22.035q0-.879-.279-1.446a1.78 1.78 0 0 0-.81-.84q-.532-.278-1.314-.278h-1v5.186h.83q1.293 0 1.933-.66.64-.659.64-1.963m7.427.888q-.001.674-.176 1.196a2.4 2.4 0 0 1-.513.884q-.338.357-.81.547a2.9 2.9 0 0 1-1.07.186q-.556 0-1.02-.186a2.3 2.3 0 0 1-.806-.547 2.5 2.5 0 0 1-.523-.884 3.6 3.6 0 0 1-.185-1.196q0-.893.307-1.514.313-.624.89-.952.575-.327 1.371-.327.747 0 1.319.327.57.327.893.953.323.624.323 1.513m-3.921 0q0 .591.141 1.01.147.42.45.645.302.22.78.22.48 0 .782-.22.303-.224.444-.644a3.2 3.2 0 0 0 .142-1.01q0-.592-.142-1.002a1.23 1.23 0 0 0-.444-.63q-.303-.22-.786-.22-.713 0-1.04.48-.327.477-.327 1.371m9.658 2.71-.684-2.515a107 107 0 0 1-.254-.99q-.068-.285-.127-.523l-.083-.371h-.039a11 11 0 0 1-.078.37 33 33 0 0 1-.259 1.075q-.063.27-.117.459l-.718 2.495h-1.26l-1.513-5.405h1.162l.703 2.685q.069.274.132.591a14 14 0 0 1 .19 1.08h.04a16 16 0 0 1 .131-.758q.045-.225.088-.42.044-.2.083-.322l.83-2.856h1.255l.796 2.856q.054.186.117.469.064.279.113.562.053.278.068.463h.039q.02-.165.068-.449.054-.288.122-.61.069-.327.142-.606l.718-2.685h1.142l-1.523 5.405zm6.552-5.503q.915 0 1.421.474.513.468.513 1.509V22h-1.147v-3.31q0-.63-.26-.943-.258-.317-.8-.317-.786 0-1.094.483-.302.484-.302 1.401V22h-1.148v-5.405h.894l.16.732h.064q.175-.283.435-.464.263-.185.586-.278.327-.093.678-.093M80.923 22h-1.153v-7.598h1.153zm6.426-2.715q0 .674-.176 1.196a2.4 2.4 0 0 1-.513.884q-.337.357-.81.547a2.9 2.9 0 0 1-1.07.186q-.556 0-1.02-.186a2.3 2.3 0 0 1-.806-.547 2.5 2.5 0 0 1-.522-.884 3.6 3.6 0 0 1-.186-1.196q0-.893.308-1.514.312-.624.888-.952t1.373-.327q.747 0 1.318.327.57.327.893.953.323.624.323 1.513m-3.921 0q0 .591.141 1.01.147.42.45.645.302.22.78.22.48 0 .782-.22.303-.224.444-.644a3.2 3.2 0 0 0 .142-1.01q0-.592-.142-1.002a1.23 1.23 0 0 0-.444-.63q-.303-.22-.786-.22-.713 0-1.04.48-.327.477-.327 1.371m7.358-2.793q1.026 0 1.548.454.528.454.527 1.416V22h-.815l-.22-.767h-.039a2.8 2.8 0 0 1-.474.484 1.7 1.7 0 0 1-.566.283q-.317.098-.776.098a2 2 0 0 1-.864-.176 1.37 1.37 0 0 1-.601-.547q-.22-.366-.22-.928 0-.835.62-1.255.625-.42 1.885-.463l.938-.035v-.283q0-.561-.264-.8-.26-.24-.733-.24-.405 0-.786.117a5.5 5.5 0 0 0-.742.288l-.371-.81q.395-.21.899-.342a4.2 4.2 0 0 1 1.054-.132m.938 2.925-.699.024q-.86.03-1.206.293a.86.86 0 0 0-.346.723q0 .4.239.586.24.18.63.18.596 0 .986-.336.396-.342.396-1.001zm4.56 2.68q-.966 0-1.552-.703-.582-.707-.582-2.084 0-1.392.591-2.105.596-.713 1.568-.713.41 0 .717.113.308.107.528.293.224.185.38.415h.054q-.024-.151-.058-.435-.03-.289-.03-.532v-1.944h1.153V22h-.899l-.205-.737H97.9a1.726 1.726 0 0 1-.898.723 2.1 2.1 0 0 1-.718.112m.323-.932q.737 0 1.04-.425.302-.425.312-1.274v-.152q0-.908-.293-1.391-.293-.489-1.07-.488-.619 0-.947.503-.321.498-.322 1.391 0 .894.322 1.367.328.47.958.469m8.701.005a2.5 2.5 0 0 0 .844-.142v.87a2.4 2.4 0 0 1-.493.141 3.3 3.3 0 0 1-.63.059q-.459 0-.825-.152a1.2 1.2 0 0 1-.581-.532q-.215-.375-.215-1.04v-2.905h-.737v-.513l.791-.405.376-1.157h.723v1.2h1.547v.875h-1.547v2.89q0 .41.205.61.204.2.542.2m3.09-6.768v1.91q0 .297-.019.58a7 7 0 0 1-.034.44h.063a1.6 1.6 0 0 1 .42-.464q.25-.185.557-.278.312-.093.664-.093.62 0 1.055.21.434.205.664.64.234.434.234 1.128V22h-1.147v-3.31q0-.63-.259-.943-.26-.317-.801-.317-.522 0-.83.22-.303.214-.435.64-.132.418-.132 1.024V22h-1.147v-7.598zm7.364 2.09q.723 0 1.24.298a2 2 0 0 1 .796.845q.278.546.278 1.308v.616h-3.608q.02.786.42 1.21.405.425 1.133.425.517 0 .927-.097.415-.103.855-.298v.932q-.405.19-.825.279-.42.087-1.006.088-.796 0-1.402-.308a2.25 2.25 0 0 1-.942-.928q-.337-.616-.337-1.528 0-.908.308-1.543.307-.634.864-.967t1.299-.332m0 .864q-.543 0-.879.352-.333.352-.391 1.03h2.461a1.9 1.9 0 0 0-.137-.718 1.03 1.03 0 0 0-.39-.488q-.26-.176-.664-.176M58.43 39l-.828-2.719h-4.164L52.609 39H50l4.031-11.469h2.961L61.04 39zm-1.407-4.75-.828-2.656a31 31 0 0 0-.21-.68q-.126-.421-.258-.852a20 20 0 0 1-.204-.757q-.078.32-.218.797a80 80 0 0 1-.438 1.492l-.82 2.656zm12.79-3.984V39h-1.829l-.32-1.117h-.125q-.281.445-.703.726a3 3 0 0 1-.93.414q-.507.133-1.054.133-.938 0-1.633-.328a2.43 2.43 0 0 1-1.086-1.039q-.383-.703-.383-1.828v-5.695h2.383v5.101q0 .938.336 1.414.335.477 1.07.477.727 0 1.14-.328.416-.336.579-.977.172-.648.172-1.578v-4.11zm4.765 8.89q-1.46 0-2.383-1.14-.915-1.148-.914-3.368 0-2.242.93-3.39.93-1.156 2.43-1.156.624 0 1.101.171.477.173.82.461.353.29.594.649h.078q-.046-.25-.117-.735a8 8 0 0 1-.062-1.007v-2.797h2.39V39h-1.828l-.46-1.133h-.102q-.227.36-.57.656a2.6 2.6 0 0 1-.805.461q-.47.172-1.102.172m.836-1.898q.977 0 1.375-.578.405-.586.43-1.758v-.258q0-1.273-.39-1.945-.392-.68-1.454-.68-.789 0-1.234.68-.446.68-.446 1.96 0 1.282.446 1.93.453.65 1.273.649m8.406-6.992V39h-2.382v-8.734zm-1.187-3.422q.531 0 .914.25.383.242.383.914 0 .664-.383.922-.383.25-.914.25-.54 0-.922-.25-.375-.259-.375-.922 0-.672.375-.914.382-.25.922-.25m11.133 7.773q0 1.094-.297 1.938a3.8 3.8 0 0 1-.852 1.43 3.6 3.6 0 0 1-1.344.874q-.78.297-1.765.297-.923 0-1.695-.297a3.8 3.8 0 0 1-1.336-.875 4.1 4.1 0 0 1-.875-1.43q-.306-.843-.305-1.937 0-1.454.516-2.46a3.54 3.54 0 0 1 1.468-1.532q.953-.523 2.274-.523 1.226 0 2.172.523.952.524 1.492 1.531.546 1.008.547 2.461m-6.04 0q0 .86.188 1.446.187.585.586.882t1.04.297q.631 0 1.022-.297.399-.297.579-.883.187-.585.187-1.445 0-.867-.187-1.437-.18-.579-.579-.867-.397-.29-1.039-.29-.945 0-1.375.649-.42.648-.421 1.945m17.766-4.515q1.485 0 2.242.765.766.758.766 2.438V39h-2.391v-5.102q0-.937-.32-1.414t-.992-.476q-.945 0-1.344.68-.398.67-.398 1.93V39h-2.383v-5.102q0-.624-.141-1.046t-.429-.633-.743-.211q-.663 0-1.046.336-.375.328-.54.976-.156.64-.156 1.57V39h-2.383v-8.734h1.82l.321 1.117h.133q.265-.453.664-.735.406-.28.89-.414.484-.132.985-.132.961 0 1.625.312a2.2 2.2 0 0 1 1.031.969h.211q.39-.672 1.102-.977a3.75 3.75 0 0 1 1.476-.304m8.539-.016q1.758 0 2.696.766.937.765.937 2.328V39H116l-.461-1.187h-.062q-.375.468-.766.765a2.6 2.6 0 0 1-.899.438q-.508.14-1.234.14-.774 0-1.39-.297a2.2 2.2 0 0 1-.961-.906q-.352-.617-.352-1.562 0-1.391.977-2.047.976-.665 2.929-.735l1.516-.047v-.382q0-.689-.359-1.008-.36-.32-1-.32-.633 0-1.243.18a10 10 0 0 0-1.218.452l-.789-1.609a6.8 6.8 0 0 1 1.554-.578 7.5 7.5 0 0 1 1.789-.211m1.266 4.867-.922.031q-1.156.032-1.609.414-.446.384-.446 1.008 0 .547.321.782.32.225.836.226.765 0 1.289-.453.531-.453.531-1.29zm7.875 4.203q-1.298 0-2.211-.468-.914-.477-1.391-1.47-.476-.99-.476-2.538 0-1.602.539-2.61.546-1.015 1.508-1.492.968-.477 2.242-.476.906 0 1.562.18a6 6 0 0 1 1.157.413l-.704 1.844a11 11 0 0 0-1.046-.367 3.3 3.3 0 0 0-.969-.149q-.625 0-1.039.297-.414.29-.617.875t-.204 1.47q0 .865.219 1.437.219.57.633.851.414.273 1.008.274a4.1 4.1 0 0 0 1.32-.196 5.1 5.1 0 0 0 1.125-.562v2.039q-.546.344-1.148.492-.594.156-1.508.156m6.57-12.312v5.437q0 .492-.039.985a65 65 0 0 1-.086.984h.031a33 33 0 0 1 .493-.68 9 9 0 0 1 .547-.648l2.445-2.656h2.687l-3.468 3.789L136.031 39h-2.75l-2.515-3.54-1.024.821V39h-2.383V26.844zM147.617 39l-.828-2.719h-4.164L141.797 39h-2.609l4.031-11.469h2.961L150.227 39zm-1.406-4.75-.828-2.656a33 33 0 0 0-.211-.68 62 62 0 0 0-.258-.852 21 21 0 0 1-.203-.757q-.078.32-.219.797-.132.468-.258.89l-.179.602-.821 2.656zm9.633-4.148q1.476 0 2.383 1.148.914 1.149.914 3.367 0 1.485-.43 2.5-.43 1.008-1.188 1.524-.757.515-1.742.515-.633 0-1.086-.156a2.8 2.8 0 0 1-.773-.414 3.7 3.7 0 0 1-.555-.547h-.125q.063.313.094.64a7 7 0 0 1 .031.641v3.524h-2.383V30.266h1.938l.336 1.132h.109q.234-.351.571-.648.335-.297.804-.469.477-.18 1.102-.18m-.766 1.906q-.625 0-.992.258-.368.258-.539.773-.164.516-.18 1.305v.258q0 .843.156 1.43.164.585.539.89.384.305 1.047.305.547 0 .899-.305t.523-.89q.18-.595.18-1.446 0-1.28-.399-1.93-.398-.648-1.234-.648m10.391-1.906q1.476 0 2.383 1.148.914 1.149.914 3.367 0 1.485-.43 2.5-.43 1.008-1.188 1.524-.758.515-1.742.515-.633 0-1.086-.156a2.8 2.8 0 0 1-.773-.414 3.7 3.7 0 0 1-.555-.547h-.125q.063.313.094.64a7 7 0 0 1 .031.641v3.524h-2.383V30.266h1.938l.336 1.132h.109q.235-.351.57-.648.337-.297.805-.469.477-.18 1.102-.18m-.766 1.906q-.625 0-.992.258-.368.258-.539.773-.164.516-.18 1.305v.258q0 .843.156 1.43.165.585.54.89.383.305 1.046.305.547 0 .899-.305t.523-.89q.18-.595.18-1.446 0-1.28-.398-1.93-.4-.648-1.235-.648"></path><defs><linearGradient id="native_svg__a" x1="-5.383" x2="18.61" y1="27.461" y2="58.565" gradientUnits="userSpaceOnUse"><stop stop-color="#FFBE00"></stop><stop offset="1" stop-color="#E85E0A"></stop></linearGradient></defs></svg>