<svg xmlns="http://www.w3.org/2000/svg" width="180" height="54" fill="none" viewBox="0 0 180 54" class="Icon  Footer-download-link-icon"><path fill="#fff" d="M165.415 54H12.325c-1.018 0-2.15-.1-3.167-.2-1.13-.2-2.148-.5-3.166-.9s-1.922-1-2.713-1.7-1.47-1.5-1.922-2.4C.79 47.9.452 47 .339 46 .113 45.1 0 44.2 0 43.2V10.7Q0 9.35.34 8c.225-1 .565-1.9 1.017-2.8s1.13-1.7 1.922-2.4c.791-.7 1.696-1.3 2.713-1.7S8.028.4 9.158.2c1.018-.1 2.036-.2 3.166-.2h155.352c1.017 0 2.148.1 3.166.2 1.13.2 2.148.5 3.166.9 2.035.9 3.618 2.3 4.635 4.1.452.9.905 1.8 1.018 2.8.226.9.226 1.8.339 2.8v32.4c0 .9-.113 1.8-.339 2.8s-.566 1.9-1.018 2.8c-.565.9-1.13 1.7-1.922 2.4-.791.7-1.696 1.3-2.713 1.7s-2.036.7-3.166.9c-1.018.2-2.035.2-3.166.2zM15.264 1h-2.94c-1.018 0-2.035.1-3.053.2-.904.2-1.922.5-2.826.9-.792.4-1.696.9-2.375 1.5a8.1 8.1 0 0 0-1.696 2.1c-.452.8-.791 1.6-.904 2.5-.226.8-.34 1.7-.34 2.6v32.4c0 .9.114 1.7.227 2.6s.452 1.7.904 2.5a8.1 8.1 0 0 0 1.696 2.1c.792.6 1.696 1.1 2.488 1.5.904.4 1.809.7 2.826.8q1.527.3 3.053.3h155.239c1.017 0 2.035-.1 2.94-.2 1.017-.1 1.922-.4 2.826-.8q1.357-.6 2.375-1.5 1.017-.9 1.695-2.1c.453-.8.792-1.6.905-2.5s.226-1.7.226-2.6V10.8c0-.9-.113-1.7-.226-2.6s-.452-1.7-.905-2.5c-.904-1.6-2.374-2.8-4.183-3.6-.904-.4-1.809-.7-2.827-.8-.791-.2-1.809-.3-2.826-.3z"></path><path fill="url(#creator_svg__a)" fill-rule="evenodd" d="M32.415 39h4.714V16h-4.714zM25 39h4.714V26.43H25zm14.83 0V21.717h4.713V39z" clip-rule="evenodd"></path><path fill="#fff" fill-rule="evenodd" d="M48.535 35.332a2.751 2.751 0 1 1 0-5.502 2.751 2.751 0 0 1 0 5.502m6.419-1.949V31.78l-1.735-.29a4.8 4.8 0 0 0-.6-1.448l1.022-1.43-1.134-1.135-1.432 1.021a4.8 4.8 0 0 0-1.449-.601l-.289-1.733h-1.605l-.288 1.733a4.8 4.8 0 0 0-1.45.601l-1.43-1.021-1.135 1.134 1.022 1.431c-.275.44-.48.928-.6 1.449l-1.735.289v1.604l1.734.29c.12.52.326 1.007.601 1.448l-1.022 1.432 1.134 1.134 1.432-1.022c.44.275.928.48 1.449.6L47.732 39h1.605l.29-1.734a4.8 4.8 0 0 0 1.448-.601l1.431 1.022 1.135-1.134-1.022-1.432c.275-.44.48-.928.6-1.448z" clip-rule="evenodd"></path><path fill="#fff" d="M70.733 18.362q0 1.207-.449 2.017a2.88 2.88 0 0 1-1.303 1.216Q68.126 22 66.92 22h-1.983v-7.139h2.198q1.109 0 1.914.4.805.396 1.245 1.178.44.775.44 1.923m-1.22.035q0-.879-.279-1.446a1.78 1.78 0 0 0-.81-.84q-.533-.278-1.314-.278h-1v5.186h.83q1.293 0 1.933-.66.64-.659.64-1.963m7.426.888q0 .674-.175 1.196a2.4 2.4 0 0 1-.513.884q-.338.357-.81.547a2.9 2.9 0 0 1-1.07.186q-.556 0-1.02-.186a2.3 2.3 0 0 1-.806-.547 2.5 2.5 0 0 1-.523-.884 3.6 3.6 0 0 1-.185-1.196q0-.893.307-1.514.313-.624.89-.952.575-.327 1.371-.327.747 0 1.319.327.57.327.893.953.322.624.322 1.513m-3.92 0q0 .591.141 1.01.147.42.45.645.302.22.78.22.48 0 .782-.22.303-.224.444-.644a3.2 3.2 0 0 0 .142-1.01q0-.592-.142-1.002a1.23 1.23 0 0 0-.444-.63q-.303-.22-.786-.22-.713 0-1.04.48-.327.477-.327 1.371m9.658 2.71-.684-2.515a107 107 0 0 1-.254-.99q-.068-.285-.127-.523l-.083-.371h-.039a11 11 0 0 1-.078.37 33 33 0 0 1-.259 1.075q-.063.27-.117.459l-.718 2.495h-1.26l-1.513-5.405h1.162l.703 2.685q.069.274.132.591a14 14 0 0 1 .19 1.08h.04a16 16 0 0 1 .131-.758q.045-.225.088-.42.044-.2.083-.322l.83-2.856h1.255l.796 2.856q.054.186.117.469.064.279.113.562.053.278.068.463h.039q.02-.165.068-.449.054-.288.122-.61.069-.327.142-.606l.718-2.685h1.142l-1.523 5.405zm6.552-5.503q.915 0 1.421.474.513.468.513 1.509V22h-1.147v-3.31q0-.63-.26-.943-.258-.317-.8-.317-.786 0-1.094.483-.302.484-.302 1.401V22h-1.148v-5.405h.894l.16.732h.064q.175-.283.435-.464.263-.185.586-.278.327-.093.678-.093M93.923 22h-1.153v-7.598h1.153zm6.426-2.715q0 .674-.176 1.196a2.4 2.4 0 0 1-.513.884q-.337.357-.81.547a2.9 2.9 0 0 1-1.07.186q-.556 0-1.02-.186a2.3 2.3 0 0 1-.806-.547 2.5 2.5 0 0 1-.522-.884 3.6 3.6 0 0 1-.186-1.196q0-.893.308-1.514.312-.624.888-.952t1.373-.327q.747 0 1.318.327.57.327.893.953.323.624.323 1.513m-3.921 0q0 .591.141 1.01.147.42.45.645.302.22.78.22.48 0 .782-.22.303-.224.444-.644a3.2 3.2 0 0 0 .142-1.01q0-.592-.142-1.002a1.23 1.23 0 0 0-.444-.63q-.303-.22-.786-.22-.713 0-1.04.48-.327.477-.327 1.371m7.358-2.793q1.026 0 1.548.454.528.454.527 1.416V22h-.815l-.22-.767h-.039a2.8 2.8 0 0 1-.474.484 1.6 1.6 0 0 1-.566.283q-.317.098-.776.098a2 2 0 0 1-.865-.176 1.38 1.38 0 0 1-.6-.547q-.22-.366-.22-.928 0-.835.62-1.255.625-.42 1.885-.463l.938-.035v-.283q0-.561-.264-.8-.26-.24-.733-.24-.405 0-.786.117a5.5 5.5 0 0 0-.742.288l-.371-.81a4.2 4.2 0 0 1 .898-.342 4.2 4.2 0 0 1 1.055-.132m.938 2.925-.699.024q-.86.03-1.206.293a.86.86 0 0 0-.346.723q0 .4.239.586.239.18.63.18.596 0 .986-.336.396-.342.396-1.001zm4.56 2.68q-.966 0-1.553-.703-.58-.707-.581-2.084 0-1.392.591-2.105.596-.713 1.568-.713.41 0 .717.113.308.107.528.293.224.185.381.415h.053q-.025-.151-.058-.435-.03-.289-.03-.532v-1.944h1.153V22h-.899l-.205-.737h-.049a1.72 1.72 0 0 1-.898.723 2.1 2.1 0 0 1-.718.112m.322-.932q.738 0 1.041-.425.301-.425.312-1.274v-.152q0-.908-.293-1.391-.293-.489-1.069-.488-.62 0-.948.503-.322.498-.322 1.391 0 .894.322 1.367.329.47.957.469m8.702.005a2.5 2.5 0 0 0 .844-.142v.87a2.4 2.4 0 0 1-.493.141 3.3 3.3 0 0 1-.63.059q-.459 0-.825-.152a1.2 1.2 0 0 1-.581-.532q-.215-.375-.215-1.04v-2.905h-.737v-.513l.791-.405.376-1.157h.723v1.2h1.547v.875h-1.547v2.89q0 .41.205.61.204.2.542.2m3.09-6.768v1.91q0 .297-.019.58a7 7 0 0 1-.034.44h.063a1.6 1.6 0 0 1 .42-.464q.25-.185.557-.278.312-.093.664-.093.62 0 1.055.21.434.205.664.64.234.434.234 1.128V22h-1.147v-3.31q0-.63-.259-.943-.26-.317-.801-.317-.522 0-.83.22-.303.214-.435.64-.132.418-.132 1.024V22h-1.147v-7.598zm7.364 2.09q.723 0 1.24.298a2 2 0 0 1 .796.845q.278.546.278 1.308v.616h-3.608q.02.786.42 1.21.405.425 1.133.425.518 0 .927-.097.416-.103.855-.298v.932q-.405.19-.825.279-.42.087-1.006.088-.796 0-1.402-.308a2.25 2.25 0 0 1-.942-.928q-.337-.616-.337-1.528 0-.908.308-1.543.307-.634.864-.967t1.299-.332m0 .864q-.543 0-.879.352-.333.352-.391 1.03h2.461a1.9 1.9 0 0 0-.137-.718 1.03 1.03 0 0 0-.39-.488q-.26-.176-.664-.176M69.29 29.43q-.697 0-1.235.273a2.45 2.45 0 0 0-.899.774q-.36.507-.547 1.226a6.4 6.4 0 0 0-.187 1.617q0 1.212.297 2.07.304.852.937 1.305.633.446 1.633.446a6.3 6.3 0 0 0 1.39-.157 13 13 0 0 0 1.524-.445v2.031a7.3 7.3 0 0 1-1.492.446q-.736.14-1.648.14-1.766 0-2.907-.726-1.133-.735-1.68-2.047-.546-1.32-.546-3.078 0-1.298.351-2.375a5.4 5.4 0 0 1 1.031-1.867 4.55 4.55 0 0 1 1.68-1.22q1-.429 2.297-.429.852 0 1.703.219.86.21 1.64.586l-.78 1.968q-.641-.305-1.29-.53a3.9 3.9 0 0 0-1.273-.227m9.538.672q.18 0 .414.023.243.015.39.047l-.179 2.234a1.5 1.5 0 0 0-.336-.054 3 3 0 0 0-.367-.024q-.461 0-.898.117a2.2 2.2 0 0 0-.774.383q-.343.258-.547.688-.195.42-.195 1.039V39h-2.383v-8.734h1.805l.351 1.468h.118q.257-.445.64-.812.39-.375.883-.594a2.6 2.6 0 0 1 1.078-.226m5.492 0q1.212 0 2.086.468a3.2 3.2 0 0 1 1.352 1.344q.477.883.476 2.156v1.157h-5.632q.039 1.007.601 1.586.57.57 1.578.57.836 0 1.531-.172t1.43-.516v1.844q-.648.32-1.36.469-.702.148-1.71.148-1.312 0-2.328-.484a3.6 3.6 0 0 1-1.586-1.477q-.57-.992-.57-2.5 0-1.53.515-2.547.525-1.023 1.453-1.53.93-.517 2.164-.516m.016 1.695q-.696 0-1.156.445-.453.445-.524 1.399H86a2.4 2.4 0 0 0-.195-.946 1.47 1.47 0 0 0-.547-.656q-.36-.242-.922-.242m8.914-1.711q1.758 0 2.695.766.938.765.938 2.328V39h-1.664l-.461-1.187h-.063q-.375.468-.765.765t-.899.438-1.234.14q-.775 0-1.39-.297a2.2 2.2 0 0 1-.962-.906q-.351-.617-.351-1.562 0-1.391.976-2.047.977-.665 2.93-.735l1.516-.047v-.382q0-.689-.36-1.008t-1-.32q-.633 0-1.242.18a10 10 0 0 0-1.219.452l-.789-1.609a6.8 6.8 0 0 1 1.555-.578 7.5 7.5 0 0 1 1.789-.211m1.266 4.867-.922.031q-1.156.032-1.61.414-.445.384-.445 1.008 0 .547.32.782.321.225.836.226.765 0 1.29-.453.53-.453.53-1.29zm8.007 2.305q.391 0 .758-.078.376-.078.742-.196v1.774a4.3 4.3 0 0 1-.953.281 6 6 0 0 1-1.234.117q-.782 0-1.406-.25a2 2 0 0 1-.977-.883q-.351-.632-.351-1.757v-4.211H97.96v-1.008l1.312-.797.688-1.844h1.523v1.86h2.446v1.789h-2.446v4.21q0 .501.282.75.288.243.757.243m10.711-2.64q0 1.092-.296 1.937a3.8 3.8 0 0 1-.852 1.43q-.555.577-1.344.874-.781.297-1.765.297-.922 0-1.696-.297a3.8 3.8 0 0 1-1.336-.875 4.1 4.1 0 0 1-.875-1.43q-.304-.843-.304-1.937 0-1.454.515-2.46a3.54 3.54 0 0 1 1.469-1.532q.953-.523 2.273-.523 1.227 0 2.172.523.953.524 1.493 1.531.546 1.008.546 2.461m-6.039 0q0 .859.188 1.444.187.586.586.883t1.039.297q.633 0 1.023-.297.4-.297.578-.883.188-.585.188-1.445 0-.867-.188-1.437-.179-.579-.578-.867-.398-.29-1.039-.29-.945 0-1.375.649-.422.648-.422 1.945m12.383-4.516q.18 0 .414.023.243.015.391.047l-.18 2.234a1.4 1.4 0 0 0-.336-.054 3 3 0 0 0-.367-.024q-.461 0-.898.117a2.2 2.2 0 0 0-.774.383 1.8 1.8 0 0 0-.547.688q-.195.42-.195 1.039V39h-2.383v-8.734h1.805l.351 1.468h.118q.257-.445.64-.812.391-.375.883-.594a2.6 2.6 0 0 1 1.078-.226M132.305 39l-.828-2.719h-4.165L126.484 39h-2.609l4.031-11.469h2.961L134.914 39zm-1.407-4.75-.828-2.656a28 28 0 0 0-.211-.68 80 80 0 0 0-.257-.852 21 21 0 0 1-.204-.757q-.078.32-.218.797a98 98 0 0 1-.438 1.492l-.82 2.656zm9.633-4.148q1.477 0 2.383 1.148.914 1.149.914 3.367 0 1.485-.43 2.5-.43 1.008-1.187 1.524-.758.515-1.742.515-.633 0-1.086-.156a2.8 2.8 0 0 1-.774-.414 3.7 3.7 0 0 1-.554-.547h-.125q.062.313.093.64.032.33.032.641v3.524h-2.383V30.266h1.937l.336 1.132h.11q.234-.351.57-.648t.805-.469a3.1 3.1 0 0 1 1.101-.18m-.765 1.906q-.626 0-.993.258-.366.258-.539.773-.164.516-.179 1.305v.258q0 .843.156 1.43.164.585.539.89.382.305 1.047.305.547 0 .898-.305.352-.305.524-.89.18-.595.179-1.446 0-1.28-.398-1.93-.399-.648-1.234-.648m10.39-1.906q1.477 0 2.383 1.148.914 1.149.914 3.367 0 1.485-.43 2.5-.43 1.008-1.187 1.524-.758.515-1.742.515-.633 0-1.086-.156a2.8 2.8 0 0 1-.774-.414 3.7 3.7 0 0 1-.554-.547h-.125q.062.313.093.64.032.33.032.641v3.524h-2.383V30.266h1.937l.336 1.132h.11q.234-.351.57-.648t.805-.469a3.1 3.1 0 0 1 1.101-.18m-.765 1.906q-.626 0-.993.258-.366.258-.539.773-.164.516-.179 1.305v.258q0 .843.156 1.43.164.585.539.89.382.305 1.047.305.547 0 .898-.305.352-.305.524-.89.18-.595.179-1.446 0-1.28-.398-1.93-.399-.648-1.234-.648"></path><defs><linearGradient id="creator_svg__a" x1="16.158" x2="39.197" y1="26.984" y2="44.898" gradientUnits="userSpaceOnUse"><stop stop-color="#FFBE00"></stop><stop offset="1" stop-color="#E85E0A"></stop></linearGradient></defs></svg>