<svg xmlns="http://www.w3.org/2000/svg" width="22" height="16" fill="none" viewBox="0 0 9 16" class="Icon  "><path fill="#fff" fill-rule="evenodd" d="M6.503 0C4.078 0 2.51 1.546 2.51 3.938v1.815H.339A.333.333 0 0 0 0 6.08V8.71c0 .18.152.326.339.326h2.17v6.638c0 .18.153.326.34.326h2.832c.188 0 .34-.146.34-.326V9.036h2.538c.188 0 .339-.146.339-.326L8.9 6.08a.32.32 0 0 0-.1-.231.35.35 0 0 0-.24-.096H6.02V4.214c0-.74.184-1.115 1.186-1.115h1.455A.333.333 0 0 0 9 2.771V.33a.333.333 0 0 0-.338-.327z" clip-rule="evenodd"></path></svg>