<svg xmlns="http://www.w3.org/2000/svg" width="22" height="16" fill="none" viewBox="0 0 16 16" class="Icon  "><path fill="#fff" fill-rule="evenodd" d="M4.702.048C5.555.01 5.827 0 8 0s2.445.01 3.298.048c.852.039 1.433.174 1.942.372.526.204.973.478 1.417.923.445.444.719.89.923 1.417.198.509.333 1.09.372 1.942C15.99 5.555 16 5.827 16 8s-.01 2.445-.048 3.298c-.039.852-.174 1.433-.372 1.942a3.9 3.9 0 0 1-.923 1.417c-.444.445-.89.719-1.417.923-.509.198-1.09.333-1.942.372C10.445 15.99 10.173 16 8 16s-2.445-.01-3.298-.048c-.852-.039-1.433-.174-1.942-.372a3.9 3.9 0 0 1-1.417-.923A3.9 3.9 0 0 1 .42 13.24c-.198-.509-.333-1.09-.372-1.942C.01 10.445 0 10.173 0 8s.01-2.445.048-3.298C.087 3.85.222 3.269.42 2.76c.204-.526.478-.973.923-1.417.444-.445.89-.719 1.417-.923C3.269.222 3.85.087 4.702.048m6.53 1.44C10.39 1.45 10.137 1.441 8 1.441s-2.39.009-3.233.047c-.78.036-1.203.166-1.485.276-.374.145-.64.318-.92.598s-.453.546-.598.92c-.11.282-.24.705-.276 1.485-.038.844-.047 1.097-.047 3.233s.009 2.39.047 3.233c.036.78.166 1.203.276 1.485.145.374.318.64.598.92s.546.453.92.598c.282.11.705.24 1.485.276.844.038 1.097.047 3.233.047s2.39-.009 3.233-.047c.78-.036 1.203-.166 1.485-.276.374-.145.64-.318.92-.598s.453-.546.598-.92c.11-.282.24-.705.276-1.485.038-.844.047-1.097.047-3.233s-.009-2.39-.047-3.233c-.036-.78-.166-1.203-.276-1.485a2.5 2.5 0 0 0-.598-.92 2.5 2.5 0 0 0-.92-.598c-.282-.11-.705-.24-1.485-.276M5.334 8a2.667 2.667 0 1 0 5.334 0 2.667 2.667 0 0 0-5.334 0M3.892 8a4.108 4.108 0 1 1 8.216 0 4.108 4.108 0 0 1-8.216 0m8.378-3.31a.96.96 0 1 0 0-1.92.96.96 0 0 0 0 1.92" clip-rule="evenodd"></path></svg>